<?xml version="1.0" standalone="no"?>
<!DOCTYPE svg PUBLIC "-//W3C//DTD SVG 20010904//EN"
 "http://www.w3.org/TR/2001/REC-SVG-20010904/DTD/svg10.dtd">
<svg version="1.0" xmlns="http://www.w3.org/2000/svg"
 width="300.000000pt" height="183.000000pt" viewBox="0 0 300.000000 183.000000"
 preserveAspectRatio="xMidYMid meet">
<metadata>
Created by potrace 1.10, written by Peter Selinger 2001-2011
</metadata>
<g transform="translate(0.000000,183.000000) scale(0.100000,-0.100000)"
fill="#000000" stroke="none">
<path d="M515 1275 c-36 -19 -55 -42 -55 -68 0 -11 -15 -36 -34 -57 -39 -44
-82 -148 -67 -163 10 -10 31 29 31 57 0 7 17 38 37 69 33 51 40 56 70 55 41
-2 84 28 98 66 8 23 6 30 -10 42 -24 18 -33 17 -70 -1z"/>
<path d="M806 1281 c-4 -5 7 -18 24 -27 16 -10 30 -22 30 -26 0 -14 -13 -9
-36 13 -12 12 -28 19 -35 17 -8 -3 2 -15 24 -30 20 -13 34 -28 31 -31 -4 -4
-20 5 -37 19 -16 14 -32 22 -36 18 -12 -12 73 -74 99 -71 19 2 31 -8 58 -47
18 -28 38 -69 45 -93 14 -53 32 -57 22 -6 -8 45 -35 100 -70 141 -14 16 -25
38 -25 47 0 10 -8 24 -17 32 -56 43 -72 52 -77 44z"/>
<path d="M587 1103 c-2 -5 -4 -46 -5 -92 -2 -80 -12 -108 -34 -95 -4 3 -8 2
-8 -3 0 -4 24 -8 53 -8 50 0 51 1 34 18 -15 15 -16 29 -11 95 3 42 8 78 9 80
7 7 46 -24 51 -41 9 -29 15 -13 8 21 -6 30 -9 32 -50 32 -23 0 -45 -3 -47 -7z"/>
<path d="M510 1068 c1 -30 2 -31 12 -13 6 11 18 26 26 33 14 10 12 12 -11 12
-24 0 -27 -4 -27 -32z"/>
<path d="M1330 1051 c0 -5 7 -11 15 -15 8 -3 24 -20 36 -38 l21 -33 -7 40 c-4
22 -8 40 -8 41 -12 8 -57 12 -57 5z"/>
<path d="M2025 1046 c12 -8 16 -36 17 -119 2 -104 3 -107 25 -107 22 0 22 1
17 109 -4 98 -3 111 13 120 14 8 6 10 -34 9 -41 -1 -49 -4 -38 -12z"/>
<path d="M2174 1035 c14 -13 26 -34 26 -45 0 -12 4 -19 8 -16 4 2 6 23 4 45
-4 38 -6 41 -35 41 l-30 0 27 -25z"/>
<path d="M2291 1044 c-22 -16 -23 -21 -19 -120 2 -85 6 -104 18 -104 13 0 15
11 10 67 -5 61 -5 81 -1 134 2 24 33 33 47 15 17 -24 27 -198 12 -208 -8 -5 1
-8 22 -8 21 0 30 3 23 8 -17 11 -22 197 -6 213 13 13 43 6 43 -10 0 -6 -7 -8
-15 -5 -8 4 -15 2 -15 -3 0 -15 11 -22 26 -16 19 7 18 27 -2 44 -13 11 -21 11
-44 -3 -25 -14 -31 -14 -41 -2 -15 18 -29 18 -58 -2z"/>
<path d="M1188 1010 l4 -41 17 33 c22 44 57 50 65 11 10 -47 5 -140 -9 -167
-13 -25 -13 -26 15 -26 15 0 37 -3 47 -7 17 -6 17 -6 0 14 -16 18 -18 36 -15
122 l3 101 -65 0 -66 0 4 -40z"/>
<path d="M418 990 c-14 -30 -29 -66 -33 -80 -6 -24 -6 -25 10 -5 30 36 56 96
52 118 -3 17 -9 10 -29 -33z"/>
<path d="M310 995 c19 -19 38 -35 44 -35 5 0 -5 16 -24 35 -19 19 -38 35 -44
35 -5 0 5 -16 24 -35z"/>
<path d="M910 998 c10 -33 59 -113 66 -106 5 5 -35 109 -48 126 -19 22 -27 13
-18 -20z"/>
<path d="M1042 1014 c-12 -8 -27 -24 -33 -35 -9 -18 -8 -19 8 -11 24 13 69 62
57 62 -5 0 -20 -7 -32 -16z"/>
<path d="M1720 1006 c0 -7 -7 -19 -15 -26 -8 -7 -12 -16 -9 -21 3 -5 7 -32 9
-59 4 -58 18 -80 52 -80 20 0 24 4 21 23 -3 23 -20 27 -27 6 -2 -7 1 -9 8 -5
6 4 11 2 11 -4 0 -6 -8 -10 -17 -8 -14 3 -19 15 -21 64 -3 60 -2 62 25 67 15
3 30 4 33 2 4 -2 17 -38 30 -79 23 -74 23 -75 4 -103 -15 -23 -19 -25 -22 -10
-2 9 -10 17 -18 17 -22 0 -13 -34 9 -38 26 -5 45 15 58 62 33 126 41 148 62
156 19 8 18 9 -10 9 -22 1 -31 -3 -28 -11 3 -7 -1 -33 -8 -58 l-13 -45 -17 49
c-14 39 -14 52 -5 59 8 5 -10 6 -45 3 l-57 -6 6 25 c4 15 2 25 -5 25 -6 0 -11
-6 -11 -14z"/>
<path d="M692 905 l2 -85 63 0 63 0 -1 43 -1 42 -12 -35 c-11 -30 -18 -35 -49
-38 -36 -3 -37 -2 -37 32 0 29 4 36 19 36 11 0 22 -6 24 -12 3 -7 6 -3 6 8 1
17 -4 20 -24 16 -23 -4 -25 -1 -25 32 0 36 1 37 33 34 22 -2 35 -10 42 -25 14
-32 22 -28 17 7 -4 29 -5 30 -63 30 l-58 0 1 -85z"/>
<path d="M1421 961 c-8 -14 -7 -22 4 -31 16 -13 39 -4 29 12 -4 6 -10 5 -16
-3 -7 -11 -8 -9 -6 6 4 23 47 34 59 14 4 -7 7 -32 7 -55 0 -23 5 -52 12 -63
11 -21 40 -29 40 -11 0 6 -6 9 -12 8 -9 -2 -13 14 -14 54 -1 32 -7 65 -14 73
-18 22 -77 19 -89 -4z"/>
<path d="M1570 955 c-13 -34 -5 -49 35 -68 22 -10 35 -24 35 -36 0 -24 -36
-34 -55 -14 -19 19 -19 27 0 19 8 -3 15 -1 15 4 0 13 -27 13 -35 -1 -9 -14 23
-49 45 -49 25 0 52 35 48 62 -2 15 -16 29 -38 40 -37 19 -47 50 -18 56 9 2 26
-7 37 -19 l21 -23 0 23 c0 12 -4 20 -9 16 -5 -3 -12 -1 -16 5 -13 21 -55 11
-65 -15z"/>
<path d="M2460 960 c-43 -43 -10 -140 49 -140 31 0 51 16 51 42 0 11 -7 18
-20 18 -12 0 -20 -7 -20 -17 0 -15 2 -16 10 -3 5 8 12 11 16 7 13 -13 -22 -40
-44 -33 -22 7 -31 33 -29 85 2 40 31 66 47 41 17 -26 11 -48 -12 -53 -14 -3
-9 -5 15 -6 36 -1 37 0 31 27 -4 15 -11 33 -17 40 -14 18 -54 15 -77 -8z"/>
<path d="M2743 973 c-7 -2 -13 -9 -13 -14 0 -6 5 -7 10 -4 6 4 10 -8 10 -29 0
-20 4 -36 10 -36 13 0 23 44 15 69 -6 21 -11 23 -32 14z"/>
<path d="M2140 956 c0 -8 -10 -17 -22 -19 -23 -4 -23 -4 -1 -6 12 0 24 -9 26
-18 3 -10 5 -1 6 20 0 20 -1 37 -4 37 -3 0 -5 -6 -5 -14z"/>
<path d="M2610 950 c-26 -26 -27 -90 -2 -113 25 -23 35 -21 22 3 -16 29 -8
101 11 113 9 6 24 7 34 3 15 -5 15 -9 4 -24 -13 -16 -13 -16 5 -2 18 14 19 13
13 -3 -4 -11 -3 -16 3 -12 14 9 12 21 -6 39 -21 22 -60 20 -84 -4z"/>
<path d="M286 918 c3 -7 25 -29 49 -48 38 -30 42 -36 26 -41 -24 -10 -35 -38
-16 -45 22 -9 38 5 25 21 -8 10 -6 15 11 20 20 7 18 10 -27 56 -45 46 -80 64
-68 37z"/>
<path d="M1024 905 c-17 -13 -39 -37 -49 -52 l-18 -28 29 19 c37 23 84 67 84
78 0 14 -14 9 -46 -17z"/>
<path d="M1432 894 c-24 -17 -29 -43 -10 -62 14 -14 54 -16 62 -3 4 5 -2 7
-13 4 -10 -3 -22 0 -26 7 -11 18 3 58 23 63 13 4 13 5 2 6 -9 0 -26 -6 -38
-15z"/>
<path d="M2210 896 c0 -8 -12 -28 -26 -45 l-26 -31 31 0 c30 0 31 1 31 45 0
25 -2 45 -5 45 -3 0 -5 -6 -5 -14z"/>
<path d="M444 877 c-7 -19 3 -97 16 -131 6 -15 9 0 9 49 1 73 -12 115 -25 82z"/>
<path d="M895 869 c-3 -13 -5 -52 -3 -84 l3 -60 13 68 c8 44 9 73 3 85 -8 15
-10 14 -16 -9z"/>
<path d="M987 813 c5 -12 3 -14 -8 -8 -12 8 -12 6 0 -8 15 -19 37 -22 46 -8 6
10 -21 41 -35 41 -5 0 -6 -7 -3 -17z"/>
<path d="M508 804 c-4 -3 -3 -18 2 -33 8 -29 48 -111 54 -111 7 0 -15 84 -31
117 -16 36 -17 36 -25 27z"/>
<path d="M828 785 c-20 -37 -41 -115 -34 -123 9 -9 57 109 54 132 -3 19 -5 18
-20 -9z"/>
<path d="M394 785 c-3 -8 -3 -19 1 -25 10 -16 35 7 28 26 -7 18 -22 18 -29 -1z"/>
<path d="M930 781 c0 -22 26 -36 33 -18 6 18 -3 37 -19 37 -8 0 -14 -9 -14
-19z"/>
<path d="M600 760 c0 -20 49 -124 56 -118 7 8 -26 101 -42 118 -12 13 -14 13
-14 0z"/>
<path d="M723 720 c-29 -62 -38 -94 -25 -86 19 11 54 92 50 112 -4 14 -10 8
-25 -26z"/>
<path d="M287 740 c6 -7 45 -14 85 -17 59 -3 69 -2 54 8 -10 6 -48 14 -85 16
-53 4 -64 3 -54 -7z"/>
<path d="M950 737 l-35 -11 40 -4 c47 -4 102 5 110 18 8 13 -71 11 -115 -3z"/>
<path d="M476 701 c-10 -16 5 -41 25 -41 23 0 26 35 3 44 -20 8 -22 8 -28 -3z"/>
<path d="M866 695 c4 -8 2 -15 -4 -15 -6 0 -13 6 -15 13 -3 6 -6 3 -6 -9 -1
-27 9 -36 26 -23 15 13 18 49 3 49 -5 0 -7 -7 -4 -15z"/>
<path d="M370 691 c0 -10 91 -44 98 -37 5 5 -73 46 -88 46 -5 0 -10 -4 -10 -9z"/>
<path d="M927 679 c-22 -11 -37 -23 -34 -25 7 -7 87 27 87 37 0 13 -10 11 -53
-12z"/>
<path d="M517 639 c-21 -5 -52 -17 -70 -26 -29 -16 -30 -18 -10 -21 24 -4 123
36 123 49 0 5 -1 9 -2 8 -2 -1 -20 -5 -41 -10z"/>
<path d="M790 645 c0 -3 22 -16 50 -30 55 -28 100 -34 81 -12 -13 17 -131 54
-131 42z"/>
<path d="M563 614 c-39 -23 -56 -44 -35 -44 9 0 90 69 82 69 -3 1 -24 -11 -47
-25z"/>
<path d="M760 619 c46 -37 71 -52 76 -46 7 7 -74 67 -90 67 -6 0 0 -10 14 -21z"/>
</g>
</svg>
